<?xml version="1.0" encoding="utf-8"?>
<svg xmlns="http://www.w3.org/2000/svg" xmlns:xlink="http://www.w3.org/1999/xlink" style="margin: auto; background: rgb(255, 255, 255); display: block; shape-rendering: auto;" width="300px" height="300px" viewBox="0 0 100 100" preserveAspectRatio="xMidYMid">
<g transform="rotate(0 50 50)">
  <rect x="47" y="24" rx="3" ry="6" width="6" height="12" fill="#073477">
    <animate attributeName="opacity" values="1;0" keyTimes="0;1" dur="2.4390243902439024s" begin="-2.2357723577235773s" repeatCount="indefinite"></animate>
  </rect>
</g><g transform="rotate(30 50 50)">
  <rect x="47" y="24" rx="3" ry="6" width="6" height="12" fill="#073477">
    <animate attributeName="opacity" values="1;0" keyTimes="0;1" dur="2.4390243902439024s" begin="-2.032520325203252s" repeatCount="indefinite"></animate>
  </rect>
</g><g transform="rotate(60 50 50)">
  <rect x="47" y="24" rx="3" ry="6" width="6" height="12" fill="#073477">
    <animate attributeName="opacity" values="1;0" keyTimes="0;1" dur="2.4390243902439024s" begin="-1.829268292682927s" repeatCount="indefinite"></animate>
  </rect>
</g><g transform="rotate(90 50 50)">
  <rect x="47" y="24" rx="3" ry="6" width="6" height="12" fill="#073477">
    <animate attributeName="opacity" values="1;0" keyTimes="0;1" dur="2.4390243902439024s" begin="-1.6260162601626016s" repeatCount="indefinite"></animate>
  </rect>
</g><g transform="rotate(120 50 50)">
  <rect x="47" y="24" rx="3" ry="6" width="6" height="12" fill="#073477">
    <animate attributeName="opacity" values="1;0" keyTimes="0;1" dur="2.4390243902439024s" begin="-1.4227642276422765s" repeatCount="indefinite"></animate>
  </rect>
</g><g transform="rotate(150 50 50)">
  <rect x="47" y="24" rx="3" ry="6" width="6" height="12" fill="#073477">
    <animate attributeName="opacity" values="1;0" keyTimes="0;1" dur="2.4390243902439024s" begin="-1.2195121951219512s" repeatCount="indefinite"></animate>
  </rect>
</g><g transform="rotate(180 50 50)">
  <rect x="47" y="24" rx="3" ry="6" width="6" height="12" fill="#073477">
    <animate attributeName="opacity" values="1;0" keyTimes="0;1" dur="2.4390243902439024s" begin="-1.016260162601626s" repeatCount="indefinite"></animate>
  </rect>
</g><g transform="rotate(210 50 50)">
  <rect x="47" y="24" rx="3" ry="6" width="6" height="12" fill="#073477">
    <animate attributeName="opacity" values="1;0" keyTimes="0;1" dur="2.4390243902439024s" begin="-0.8130081300813008s" repeatCount="indefinite"></animate>
  </rect>
</g><g transform="rotate(240 50 50)">
  <rect x="47" y="24" rx="3" ry="6" width="6" height="12" fill="#073477">
    <animate attributeName="opacity" values="1;0" keyTimes="0;1" dur="2.4390243902439024s" begin="-0.6097560975609756s" repeatCount="indefinite"></animate>
  </rect>
</g><g transform="rotate(270 50 50)">
  <rect x="47" y="24" rx="3" ry="6" width="6" height="12" fill="#073477">
    <animate attributeName="opacity" values="1;0" keyTimes="0;1" dur="2.4390243902439024s" begin="-0.4065040650406504s" repeatCount="indefinite"></animate>
  </rect>
</g><g transform="rotate(300 50 50)">
  <rect x="47" y="24" rx="3" ry="6" width="6" height="12" fill="#073477">
    <animate attributeName="opacity" values="1;0" keyTimes="0;1" dur="2.4390243902439024s" begin="-0.2032520325203252s" repeatCount="indefinite"></animate>
  </rect>
</g><g transform="rotate(330 50 50)">
  <rect x="47" y="24" rx="3" ry="6" width="6" height="12" fill="#073477">
    <animate attributeName="opacity" values="1;0" keyTimes="0;1" dur="2.4390243902439024s" begin="0s" repeatCount="indefinite"></animate>
  </rect>
</g>
<!-- [ldio] generated by https://loading.io/ --></svg>